<svg xmlns="http://www.w3.org/2000/svg" xmlns:xlink="http://www.w3.org/1999/xlink" width="500" zoomAndPan="magnify" viewBox="0 0 375 374.999991" height="500" preserveAspectRatio="xMidYMid meet" version="1.0"><path fill="#ffffff" d="M -0.550781 344.253906 C -0.550781 361.535156 13.460938 375.550781 30.746094 375.550781 L 299.890625 375.550781 L 299.890625 312.957031 L 30.746094 312.957031 C 13.460938 312.957031 -0.550781 326.972656 -0.550781 344.253906 Z M -0.550781 344.253906 " fill-opacity="1" fill-rule="nonzero"/><path fill="#ffffff" d="M 155.929688 87.628906 C 155.929688 88.242188 155.898438 88.855469 155.835938 89.46875 C 155.777344 90.082031 155.6875 90.6875 155.566406 91.292969 C 155.445312 91.894531 155.296875 92.492188 155.121094 93.078125 C 154.941406 93.667969 154.734375 94.246094 154.5 94.8125 C 154.261719 95.382812 154 95.9375 153.710938 96.480469 C 153.421875 97.023438 153.105469 97.550781 152.761719 98.0625 C 152.421875 98.570312 152.054688 99.066406 151.664062 99.539062 C 151.277344 100.015625 150.863281 100.472656 150.429688 100.90625 C 149.992188 101.339844 149.539062 101.753906 149.0625 102.144531 C 148.585938 102.535156 148.09375 102.898438 147.582031 103.242188 C 147.070312 103.582031 146.542969 103.898438 146.003906 104.1875 C 145.460938 104.480469 144.90625 104.742188 144.335938 104.976562 C 143.769531 105.210938 143.191406 105.417969 142.601562 105.597656 C 142.011719 105.777344 141.417969 105.925781 140.8125 106.046875 C 140.210938 106.164062 139.601562 106.253906 138.992188 106.316406 C 138.378906 106.375 137.765625 106.40625 137.152344 106.40625 C 136.535156 106.40625 135.921875 106.375 135.308594 106.316406 C 134.699219 106.253906 134.089844 106.164062 133.488281 106.046875 C 132.882812 105.925781 132.289062 105.777344 131.699219 105.597656 C 131.109375 105.417969 130.53125 105.210938 129.964844 104.976562 C 129.394531 104.742188 128.839844 104.480469 128.296875 104.1875 C 127.757812 103.898438 127.230469 103.582031 126.71875 103.242188 C 126.207031 102.898438 125.714844 102.535156 125.238281 102.144531 C 124.761719 101.753906 124.308594 101.339844 123.871094 100.90625 C 123.4375 100.472656 123.027344 100.015625 122.636719 99.539062 C 122.246094 99.066406 121.878906 98.570312 121.539062 98.0625 C 121.195312 97.550781 120.878906 97.023438 120.589844 96.480469 C 120.300781 95.9375 120.039062 95.382812 119.800781 94.8125 C 119.566406 94.246094 119.359375 93.667969 119.179688 93.078125 C 119.003906 92.492188 118.855469 91.894531 118.734375 91.292969 C 118.613281 90.6875 118.523438 90.082031 118.464844 89.46875 C 118.402344 88.855469 118.371094 88.242188 118.371094 87.628906 C 118.371094 87.011719 118.402344 86.398438 118.464844 85.789062 C 118.523438 85.175781 118.613281 84.566406 118.734375 83.964844 C 118.855469 83.363281 119.003906 82.765625 119.179688 82.175781 C 119.359375 81.589844 119.566406 81.011719 119.800781 80.441406 C 120.039062 79.875 120.300781 79.320312 120.589844 78.777344 C 120.878906 78.234375 121.195312 77.707031 121.539062 77.195312 C 121.878906 76.683594 122.246094 76.191406 122.636719 75.714844 C 123.027344 75.242188 123.4375 74.785156 123.871094 74.351562 C 124.308594 73.914062 124.761719 73.503906 125.238281 73.113281 C 125.714844 72.722656 126.207031 72.355469 126.71875 72.015625 C 127.230469 71.675781 127.757812 71.359375 128.296875 71.066406 C 128.839844 70.777344 129.394531 70.515625 129.964844 70.28125 C 130.53125 70.046875 131.109375 69.839844 131.699219 69.660156 C 132.289062 69.480469 132.882812 69.332031 133.488281 69.210938 C 134.089844 69.089844 134.699219 69 135.308594 68.941406 C 135.921875 68.882812 136.535156 68.851562 137.152344 68.851562 C 137.765625 68.851562 138.378906 68.882812 138.992188 68.941406 C 139.601562 69 140.210938 69.089844 140.8125 69.210938 C 141.417969 69.332031 142.011719 69.480469 142.601562 69.660156 C 143.191406 69.839844 143.769531 70.046875 144.335938 70.28125 C 144.90625 70.515625 145.460938 70.777344 146.003906 71.066406 C 146.542969 71.359375 147.070312 71.675781 147.582031 72.015625 C 148.09375 72.355469 148.585938 72.722656 149.0625 73.113281 C 149.539062 73.503906 149.992188 73.914062 150.429688 74.351562 C 150.863281 74.785156 151.277344 75.242188 151.664062 75.714844 C 152.054688 76.191406 152.421875 76.683594 152.761719 77.195312 C 153.105469 77.707031 153.421875 78.234375 153.710938 78.777344 C 154 79.320312 154.261719 79.875 154.5 80.441406 C 154.734375 81.011719 154.941406 81.589844 155.121094 82.175781 C 155.296875 82.765625 155.445312 83.363281 155.566406 83.964844 C 155.6875 84.566406 155.777344 85.175781 155.835938 85.789062 C 155.898438 86.398438 155.929688 87.011719 155.929688 87.628906 Z M 155.929688 87.628906 " fill-opacity="1" fill-rule="nonzero"/><path fill="#ffffff" d="M 212.261719 162.738281 L 212.261719 210.222656 L 199.742188 222.738281 L 199.742188 157.550781 L 299.890625 57.402344 L 299.890625 6.257812 L 30.746094 6.257812 C 13.460938 6.257812 -0.550781 20.273438 -0.550781 37.554688 L -0.550781 313.652344 C 7.410156 305.511719 18.488281 300.441406 30.746094 300.441406 L 299.890625 300.441406 L 299.890625 205.476562 L 273.777344 231.589844 L 224.777344 231.589844 L 187.222656 269.144531 L 179.128906 261.050781 L 329.351562 110.832031 L 337.445312 118.925781 L 237.296875 219.070312 L 268.59375 219.070312 L 331.003906 156.660156 C 359.167969 128.496094 375 90.28125 375 50.441406 L 375 0 Z M 137.152344 43.8125 C 168.265625 43.8125 193.484375 69.03125 193.484375 100.148438 C 193.484375 116.851562 186.167969 131.816406 174.613281 142.132812 C 173.652344 122.246094 157.273438 106.40625 137.152344 106.40625 C 117.027344 106.40625 100.648438 122.246094 99.6875 142.132812 C 88.136719 131.816406 80.816406 116.851562 80.816406 100.148438 C 80.816406 69.03125 106.035156 43.8125 137.152344 43.8125 Z M 80.816406 187.773438 L 174.707031 187.773438 L 174.707031 200.292969 L 80.816406 200.292969 Z M 80.816406 219.070312 L 162.1875 219.070312 L 162.1875 231.589844 L 80.816406 231.589844 Z M 143.410156 262.886719 L 80.816406 262.886719 L 80.816406 250.367188 L 143.410156 250.367188 Z M 143.410156 262.886719 " fill-opacity="1" fill-rule="nonzero"/></svg>