<svg xmlns="http://www.w3.org/2000/svg" xmlns:xlink="http://www.w3.org/1999/xlink" width="500" zoomAndPan="magnify" viewBox="0 0 375 374.999991" height="500" preserveAspectRatio="xMidYMid meet" version="1.0"><defs><clipPath id="350d8f6048"><path d="M 158 317 L 277 317 L 277 367.328125 L 158 367.328125 Z M 158 317 " clip-rule="nonzero"/></clipPath><clipPath id="51c2ed1d87"><path d="M 314 129 L 366.429688 129 L 366.429688 251 L 314 251 Z M 314 129 " clip-rule="nonzero"/></clipPath><clipPath id="eed8c7b8f7"><path d="M 8.679688 7.328125 L 288 7.328125 L 288 302 L 8.679688 302 Z M 8.679688 7.328125 " clip-rule="nonzero"/></clipPath></defs><path fill="#ffffff" d="M 276.332031 264.433594 L 276.839844 255.542969 L 276.839844 255.53125 C 276.039062 254.917969 275.234375 254.289062 274.433594 253.652344 L 243.40625 262.550781 L 276.332031 264.433594 " fill-opacity="1" fill-rule="nonzero"/><g clip-path="url(#350d8f6048)"><path fill="#ffffff" d="M 253.617188 367.71875 L 264.058594 347.78125 L 264.816406 346.339844 L 276.191406 324.625 L 158.507812 317.914062 L 253.617188 367.71875 " fill-opacity="1" fill-rule="nonzero"/></g><path fill="#ffffff" d="M 249.679688 201.652344 L 249.226562 201.785156 L 247.039062 202.414062 L 246.585938 202.546875 L 242.726562 203.644531 L 239.292969 204.625 L 239.292969 204.636719 L 218.09375 210.710938 L 112.027344 241.09375 L 106.363281 242.722656 L 103.910156 243.429688 L 86.898438 248.300781 L 81.617188 229.863281 L 72.125 196.726562 C 72.859375 195.394531 73.632812 194.0625 74.402344 192.742188 L 74.402344 192.734375 C 76.601562 188.980469 78.890625 185.28125 81.320312 181.6875 C 82.167969 180.433594 83.082031 179.125 84.445312 178.453125 C 85.433594 177.96875 87.242188 178 89.421875 178.308594 C 92.234375 178.703125 95.65625 179.550781 98.640625 180.289062 C 102.644531 172.148438 106.933594 163.542969 110.695312 156.261719 C 115.46875 147.050781 119.398438 139.945312 120.882812 138.539062 C 121.511719 137.953125 122.851562 138.132812 124.757812 138.902344 C 126.011719 139.40625 127.515625 140.167969 129.222656 141.136719 C 132.742188 143.125 137.101562 145.996094 141.894531 149.265625 C 145.242188 151.542969 148.792969 154.03125 152.425781 156.558594 C 159.3125 161.367188 166.453125 166.339844 172.84375 170.378906 C 180.414062 175.160156 186.957031 178.660156 190.863281 179.113281 C 191.335938 179.167969 191.800781 179.210938 192.25 179.253906 C 193.128906 179.34375 193.953125 179.398438 194.726562 179.453125 C 195.671875 179.5 196.542969 179.527344 197.355469 179.527344 L 197.308594 179.355469 C 197.269531 179.15625 197.210938 178.96875 197.167969 178.78125 C 197.089844 178.507812 197.003906 178.234375 196.914062 177.945312 C 196.859375 177.78125 196.804688 177.605469 196.738281 177.417969 C 196.519531 176.789062 196.289062 176.195312 196.023438 175.613281 C 195.519531 174.46875 194.933594 173.445312 194.351562 172.621094 C 194.0625 172.214844 193.78125 171.863281 193.515625 171.542969 C 193.382812 171.386719 193.261719 171.246094 193.140625 171.113281 C 193.085938 171.046875 193.03125 170.980469 192.964844 170.925781 C 190.941406 172.785156 193.425781 176.617188 193.425781 176.617188 C 193.425781 176.617188 188.863281 174.84375 190.832031 171.003906 C 190.832031 171.003906 188.796875 172.675781 189.101562 175.171875 C 189.136719 175.472656 189.203125 175.777344 189.3125 176.097656 C 189.3125 176.097656 188.410156 175.207031 188.136719 173.964844 C 187.859375 172.785156 188.160156 171.300781 190.390625 170.011719 C 190.390625 170.011719 188.554688 169.835938 187.308594 172.09375 C 187.308594 172.09375 187.71875 167.980469 190.984375 168.519531 C 190.984375 168.519531 190.839844 166.625 191.746094 165.359375 C 191.953125 165.097656 192.1875 164.855469 192.492188 164.664062 C 192.8125 164.480469 193.164062 164.335938 193.601562 164.292969 C 193.601562 164.292969 192.1875 165.746094 192.578125 167.703125 C 193.722656 166.535156 196.175781 164.699219 197.9375 168.175781 C 197.738281 168.101562 195.054688 166.964844 194.308594 168.570312 C 194.308594 168.570312 198.34375 167.570312 197.804688 173.382812 C 197.761719 173.191406 196.628906 169.078125 193.746094 170.417969 L 193.804688 170.476562 C 193.933594 170.609375 194.074219 170.75 194.21875 170.902344 C 194.527344 171.222656 194.847656 171.585938 195.175781 172.015625 C 195.519531 172.433594 195.847656 172.894531 196.175781 173.421875 C 196.507812 173.929688 196.835938 174.492188 197.136719 175.085938 C 197.441406 175.679688 197.730469 176.304688 197.992188 176.945312 C 198.125 177.273438 198.246094 177.605469 198.378906 177.933594 C 198.488281 178.253906 198.597656 178.585938 198.707031 178.925781 L 198.707031 178.945312 C 198.773438 179.125 198.828125 179.308594 198.875 179.507812 L 198.875 179.519531 L 198.894531 179.519531 C 199.058594 179.527344 199.214844 179.519531 199.378906 179.519531 C 199.488281 179.519531 199.585938 179.519531 199.6875 179.507812 C 199.851562 178.980469 200.007812 178.453125 200.171875 177.890625 C 200.5 176.769531 200.832031 175.582031 201.140625 174.335938 C 201.667969 172.167969 202.128906 169.871094 202.460938 167.515625 C 202.527344 167.042969 202.589844 166.558594 202.636719 166.074219 C 202.8125 164.65625 202.921875 163.226562 202.976562 161.828125 C 203.023438 160.429688 203.011719 159.042969 202.933594 157.714844 C 202.800781 155.050781 202.394531 152.574219 201.867188 150.519531 C 201.613281 149.484375 201.335938 148.546875 201.03125 147.734375 C 200.898438 147.316406 200.753906 146.929688 200.621094 146.589844 C 200.542969 146.417969 200.480469 146.25 200.414062 146.097656 C 194.976562 148.242188 197.015625 157.703125 197.015625 157.703125 C 197.015625 157.703125 189.34375 150.75 196.101562 144.621094 C 195.714844 144.753906 189.488281 147.0625 189.257812 153.578125 C 189.257812 153.578125 184.976562 144.117188 196.003906 142.332031 C 196.003906 142.332031 192.503906 140.582031 188.300781 144.09375 C 188.476562 143.753906 192.382812 136.335938 198.332031 139.800781 C 198.332031 139.800781 198.621094 138.847656 199.234375 137.648438 C 199.875 136.46875 200.84375 135.050781 202.230469 134.148438 C 203.414062 133.367188 204.902344 132.980469 206.71875 133.421875 C 206.71875 133.421875 202.789062 135.226562 202.097656 139.417969 C 205.230469 137.976562 211.515625 136.195312 212.363281 144.445312 C 212.363281 144.445312 207.671875 139.738281 204.847656 142.433594 C 204.847656 142.433594 213.636719 143.511719 208.15625 154.652344 C 208.15625 154.652344 209.226562 145.203125 202.339844 145.675781 L 202.417969 145.832031 C 202.570312 146.195312 202.757812 146.578125 202.921875 147.011719 C 203.285156 147.867188 203.636719 148.847656 203.976562 149.914062 C 204.308594 151.003906 204.628906 152.191406 204.902344 153.457031 C 205.164062 154.742188 205.375 156.097656 205.53125 157.496094 C 205.683594 158.902344 205.78125 160.367188 205.8125 161.851562 C 205.835938 163.335938 205.804688 164.84375 205.726562 166.339844 C 205.695312 166.867188 205.652344 167.386719 205.605469 167.910156 C 205.582031 168.210938 205.550781 168.519531 205.519531 168.824219 C 205.308594 170.992188 204.992188 173.09375 204.617188 175.085938 C 204.449219 176.019531 204.265625 176.921875 204.066406 177.792969 C 203.945312 178.34375 203.824219 178.878906 203.703125 179.398438 C 203.800781 179.386719 203.902344 179.386719 203.988281 179.386719 C 204.242188 178.859375 204.519531 178.332031 204.800781 177.800781 C 205.042969 177.351562 205.289062 176.910156 205.550781 176.460938 C 205.703125 176.183594 205.871094 175.910156 206.035156 175.644531 L 206.046875 175.601562 C 206.652344 174.632812 207.269531 173.675781 207.925781 172.773438 C 208.597656 171.851562 209.289062 170.960938 210.007812 170.148438 C 210.710938 169.320312 211.449219 168.550781 212.164062 167.867188 C 212.878906 167.1875 213.605469 166.570312 214.285156 166.03125 C 214.980469 165.492188 215.628906 165.027344 216.222656 164.65625 C 216.519531 164.445312 216.792969 164.28125 217.070312 164.128906 L 217.167969 164.0625 C 213.121094 160.839844 209.753906 166.902344 209.589844 167.1875 C 210.984375 157.78125 216.992188 160.914062 216.992188 160.914062 C 216.390625 157.976562 211.371094 158.910156 211.371094 158.910156 C 213.230469 156.734375 214.902344 156.316406 216.296875 156.722656 C 217.914062 157.195312 219.160156 158.769531 219.929688 159.992188 L 219.941406 160.003906 L 219.941406 160.015625 C 219.972656 160.089844 220.007812 160.136719 220.050781 160.199219 L 220.09375 160.101562 C 221.402344 157.195312 219.742188 154.410156 219.742188 154.410156 C 220.425781 154.652344 220.941406 155.019531 221.359375 155.425781 C 221.777344 155.84375 222.0625 156.316406 222.261719 156.8125 C 222.933594 158.449219 222.667969 160.367188 222.449219 161.378906 C 222.351562 161.816406 222.261719 162.09375 222.261719 162.09375 C 227.652344 162.5 226.730469 169.1875 226.730469 169.1875 C 225.617188 165.128906 222.636719 164.710938 222.636719 164.710938 C 228.664062 170.5 222.328125 174.558594 222.019531 174.746094 C 224.761719 170.390625 221.582031 166.109375 221.582031 166.109375 C 223.1875 172.929688 215.296875 173.984375 215.296875 173.984375 C 215.296875 173.984375 220.699219 168.894531 218.214844 165.160156 C 218.09375 165.238281 217.972656 165.316406 217.875 165.390625 C 217.632812 165.558594 217.367188 165.734375 217.101562 165.921875 C 216.5625 166.316406 215.96875 166.789062 215.363281 167.328125 C 214.132812 168.394531 212.800781 169.792969 211.558594 171.410156 C 210.917969 172.226562 210.3125 173.09375 209.730469 174.007812 C 209.324219 174.644531 208.925781 175.304688 208.542969 175.976562 C 208.390625 176.265625 208.246094 176.535156 208.09375 176.824219 C 207.894531 177.199219 207.695312 177.582031 207.511719 177.96875 C 207.269531 178.464844 207.023438 178.957031 206.804688 179.453125 C 207.179688 179.476562 207.5625 179.507812 207.960938 179.550781 C 211.878906 179.9375 216.925781 181.191406 225.890625 184.632812 C 231.339844 186.738281 237.300781 188.847656 243.152344 190.828125 C 243.40625 190.917969 243.660156 191.003906 243.914062 191.082031 C 244.925781 191.433594 245.9375 191.761719 246.9375 192.09375 L 247.160156 192.855469 L 249.679688 201.652344 " fill-opacity="1" fill-rule="nonzero"/><path fill="#ffffff" d="M 146.03125 107.882812 C 147.683594 113.648438 152.195312 117.828125 157.574219 119.324219 C 159.917969 119.984375 162.4375 120.125 164.957031 119.675781 C 165.503906 119.574219 166.066406 119.453125 166.617188 119.292969 C 175.460938 116.761719 180.566406 107.542969 178.035156 98.707031 C 177.078125 95.359375 175.164062 92.558594 172.667969 90.5 L 172.667969 90.488281 C 168.574219 87.097656 162.941406 85.710938 157.441406 87.296875 C 153.65625 88.386719 150.554688 90.695312 148.441406 93.679688 L 148.429688 93.699219 L 146.394531 97.582031 L 146.382812 97.605469 C 145.328125 100.511719 145.066406 103.722656 145.789062 106.9375 C 145.855469 107.253906 145.945312 107.574219 146.03125 107.882812 " fill-opacity="1" fill-rule="nonzero"/><path fill="#ffffff" d="M 247.894531 70.980469 L 253.726562 91.3125 L 294.894531 93.667969 L 293.695312 114.613281 L 292.453125 136.507812 L 288.171875 211.503906 L 289.21875 215.160156 L 289.667969 216.707031 L 295.863281 238.347656 L 296.910156 241.992188 L 298.292969 246.808594 L 293.695312 248.128906 L 289.832031 249.238281 L 285.949219 250.351562 L 285.148438 264.457031 L 284.617188 273.71875 L 280.417969 273.476562 L 217.742188 269.902344 L 179.410156 280.890625 L 120.210938 297.855469 L 93.886719 305.402344 L 139.609375 308.011719 L 242.40625 313.875 L 258.777344 314.808594 L 280.671875 316.0625 L 302.144531 317.285156 L 303.429688 294.808594 L 303.519531 293.199219 L 304.851562 269.902344 L 307.613281 221.558594 L 311.882812 146.683594 L 313.136719 124.792969 L 315.984375 74.863281 L 247.894531 70.980469 " fill-opacity="1" fill-rule="nonzero"/><g clip-path="url(#51c2ed1d87)"><path fill="#ffffff" d="M 321.695312 129.269531 L 320.449219 151.171875 L 339.296875 161.039062 L 317.503906 202.648438 L 314.753906 251 L 366.273438 152.613281 L 321.695312 129.269531 " fill-opacity="1" fill-rule="nonzero"/></g><g clip-path="url(#eed8c7b8f7)"><path fill="#ffffff" d="M 253.199219 206.371094 L 250.734375 207.078125 L 244.234375 208.9375 C 244.222656 209.011719 244.222656 209.058594 244.222656 209.058594 C 244.222656 209.058594 244.199219 209.023438 244.167969 208.960938 L 219.613281 216 L 113.542969 246.386719 L 107.878906 248.015625 L 105.414062 248.71875 L 85.0625 254.546875 L 83.125 255.109375 L 76.328125 231.378906 L 33.441406 81.75 L 95.941406 63.835938 L 100.410156 62.5625 L 206.804688 32.066406 L 217.453125 69.238281 L 219.292969 75.644531 L 223.285156 89.582031 L 226.894531 102.167969 L 235.035156 130.5625 L 242.382812 156.21875 L 252.453125 191.335938 L 255.003906 200.257812 L 256.488281 205.429688 Z M 281.21875 219.15625 L 280.757812 217.574219 L 279.710938 213.921875 L 279.304688 212.488281 L 251.347656 114.984375 L 245.464844 94.433594 L 245.265625 93.742188 L 243.746094 88.449219 L 239.4375 73.40625 L 238.589844 70.4375 L 236.023438 61.484375 L 236.011719 61.484375 L 220.503906 7.355469 L 8.722656 68.050781 L 62.894531 257.035156 L 66.523438 269.742188 L 68.976562 278.277344 L 69.417969 279.832031 L 75.621094 301.472656 L 82.5 299.5 L 91.464844 296.9375 L 108.914062 291.933594 L 168.113281 274.96875 L 168.125 274.96875 L 215.320312 261.4375 L 216.75 261.027344 L 266.050781 246.894531 L 277.523438 243.601562 L 283.53125 241.886719 L 287.402344 240.777344 L 287.402344 240.765625 L 281.21875 219.15625 " fill-opacity="1" fill-rule="nonzero"/></g></svg>