<svg xmlns="http://www.w3.org/2000/svg" xmlns:xlink="http://www.w3.org/1999/xlink" width="500" zoomAndPan="magnify" viewBox="0 0 375 374.999991" height="500" preserveAspectRatio="xMidYMid meet" version="1.0"><defs><clipPath id="82286dd1af"><path d="M 56.816406 4.402344 L 317.816406 4.402344 L 317.816406 370.402344 L 56.816406 370.402344 Z M 56.816406 4.402344 " clip-rule="nonzero"/></clipPath></defs><g clip-path="url(#82286dd1af)"><path fill="#ffffff" d="M 207.570312 5.726562 C 200.902344 4.921875 194.210938 4.527344 187.496094 4.542969 L 187.496094 4.609375 C 180.78125 4.59375 174.089844 4.988281 167.421875 5.789062 C 100.914062 13.945312 56.816406 76.527344 56.816406 139.609375 C 56.816406 180.363281 77.238281 217.972656 98.101562 252.785156 C 119.503906 287.851562 143.039062 321.421875 168.710938 353.496094 C 173.488281 359.550781 179.988281 369.980469 187.496094 370.453125 L 187.496094 370.386719 C 195.003906 369.914062 201.503906 359.488281 206.28125 353.429688 C 231.953125 321.355469 255.488281 287.789062 276.890625 252.71875 C 297.753906 217.90625 318.179688 180.308594 318.179688 139.542969 C 318.179688 76.464844 274.078125 13.878906 207.570312 5.726562 Z M 187.496094 246.304688 C 185.679688 246.304688 183.863281 246.257812 182.046875 246.167969 C 180.230469 246.082031 178.417969 245.945312 176.609375 245.769531 C 174.800781 245.589844 172.996094 245.367188 171.199219 245.101562 C 169.398438 244.835938 167.609375 244.523438 165.824219 244.167969 C 164.042969 243.816406 162.269531 243.417969 160.507812 242.976562 C 158.742188 242.53125 156.992188 242.046875 155.25 241.519531 C 153.511719 240.992188 151.785156 240.421875 150.074219 239.808594 C 148.363281 239.199219 146.667969 238.542969 144.988281 237.847656 C 143.308594 237.152344 141.648438 236.417969 140.003906 235.640625 C 138.359375 234.863281 136.738281 234.042969 135.132812 233.1875 C 133.53125 232.332031 131.949219 231.433594 130.390625 230.5 C 128.832031 229.566406 127.296875 228.59375 125.785156 227.582031 C 124.273438 226.574219 122.785156 225.527344 121.328125 224.445312 C 119.867188 223.359375 118.433594 222.242188 117.027344 221.089844 C 115.621094 219.9375 114.246094 218.75 112.898438 217.527344 C 111.554688 216.308594 110.238281 215.054688 108.953125 213.769531 C 107.664062 212.484375 106.414062 211.167969 105.191406 209.820312 C 103.972656 208.472656 102.785156 207.097656 101.628906 205.691406 C 100.476562 204.285156 99.359375 202.855469 98.277344 201.394531 C 97.195312 199.933594 96.148438 198.449219 95.136719 196.9375 C 94.128906 195.425781 93.15625 193.890625 92.21875 192.332031 C 91.285156 190.769531 90.390625 189.191406 89.53125 187.585938 C 88.675781 185.984375 87.859375 184.359375 87.082031 182.714844 C 86.304688 181.074219 85.566406 179.410156 84.871094 177.734375 C 84.175781 176.054688 83.523438 174.355469 82.910156 172.644531 C 82.296875 170.933594 81.726562 169.207031 81.199219 167.46875 C 80.671875 165.730469 80.1875 163.976562 79.746094 162.214844 C 79.304688 160.449219 78.90625 158.675781 78.550781 156.894531 C 78.195312 155.113281 77.886719 153.320312 77.617188 151.523438 C 77.351562 149.726562 77.128906 147.921875 76.953125 146.113281 C 76.773438 144.304688 76.640625 142.492188 76.550781 140.675781 C 76.460938 138.859375 76.417969 137.042969 76.417969 135.222656 C 76.417969 133.40625 76.460938 131.589844 76.550781 129.773438 C 76.640625 127.957031 76.773438 126.144531 76.953125 124.335938 C 77.128906 122.527344 77.351562 120.722656 77.617188 118.925781 C 77.886719 117.128906 78.195312 115.335938 78.550781 113.554688 C 78.90625 111.769531 79.304688 109.996094 79.746094 108.234375 C 80.1875 106.472656 80.671875 104.71875 81.199219 102.980469 C 81.726562 101.238281 82.296875 99.515625 82.910156 97.800781 C 83.523438 96.089844 84.175781 94.394531 84.871094 92.714844 C 85.566406 91.035156 86.304688 89.375 87.082031 87.730469 C 87.859375 86.089844 88.675781 84.464844 89.53125 82.863281 C 90.390625 81.257812 91.285156 79.675781 92.21875 78.117188 C 93.15625 76.558594 94.128906 75.023438 95.136719 73.511719 C 96.148438 72 97.195312 70.515625 98.277344 69.054688 C 99.359375 67.59375 100.476562 66.160156 101.628906 64.757812 C 102.785156 63.351562 103.972656 61.976562 105.191406 60.628906 C 106.414062 59.28125 107.664062 57.964844 108.953125 56.679688 C 110.238281 55.394531 111.554688 54.140625 112.898438 52.917969 C 114.246094 51.699219 115.621094 50.511719 117.027344 49.359375 C 118.433594 48.207031 119.867188 47.085938 121.328125 46.003906 C 122.785156 44.921875 124.273438 43.875 125.785156 42.863281 C 127.296875 41.855469 128.832031 40.882812 130.390625 39.949219 C 131.949219 39.011719 133.53125 38.117188 135.132812 37.261719 C 136.738281 36.402344 138.359375 35.585938 140.003906 34.808594 C 141.648438 34.03125 143.308594 33.296875 144.988281 32.601562 C 146.667969 31.90625 148.363281 31.25 150.074219 30.636719 C 151.785156 30.027344 153.511719 29.457031 155.25 28.929688 C 156.992188 28.398438 158.742188 27.914062 160.507812 27.472656 C 162.269531 27.03125 164.042969 26.632812 165.824219 26.277344 C 167.609375 25.925781 169.398438 25.613281 171.199219 25.347656 C 172.996094 25.082031 174.800781 24.859375 176.609375 24.679688 C 178.417969 24.5 180.230469 24.367188 182.046875 24.277344 C 183.863281 24.1875 185.679688 24.144531 187.496094 24.144531 C 189.3125 24.144531 191.132812 24.1875 192.945312 24.277344 C 194.761719 24.367188 196.574219 24.5 198.382812 24.679688 C 200.191406 24.859375 201.996094 25.082031 203.796875 25.347656 C 205.59375 25.613281 207.382812 25.925781 209.167969 26.277344 C 210.949219 26.632812 212.722656 27.03125 214.488281 27.472656 C 216.25 27.914062 218 28.398438 219.742188 28.929688 C 221.480469 29.457031 223.207031 30.027344 224.917969 30.636719 C 226.628906 31.25 228.324219 31.90625 230.003906 32.601562 C 231.683594 33.296875 233.34375 34.03125 234.988281 34.808594 C 236.632812 35.585938 238.253906 36.402344 239.859375 37.261719 C 241.460938 38.117188 243.042969 39.011719 244.601562 39.949219 C 246.160156 40.882812 247.695312 41.855469 249.207031 42.863281 C 250.71875 43.875 252.207031 44.921875 253.667969 46.003906 C 255.125 47.085938 256.558594 48.207031 257.964844 49.359375 C 259.371094 50.511719 260.746094 51.699219 262.09375 52.917969 C 263.441406 54.140625 264.753906 55.394531 266.042969 56.679688 C 267.328125 57.964844 268.578125 59.28125 269.800781 60.628906 C 271.019531 61.976562 272.207031 63.351562 273.363281 64.757812 C 274.515625 66.160156 275.632812 67.59375 276.714844 69.054688 C 277.800781 70.515625 278.84375 72 279.855469 73.511719 C 280.867188 75.023438 281.835938 76.558594 282.773438 78.117188 C 283.707031 79.675781 284.601562 81.257812 285.460938 82.863281 C 286.316406 84.464844 287.132812 86.089844 287.910156 87.730469 C 288.6875 89.375 289.425781 91.035156 290.121094 92.714844 C 290.816406 94.394531 291.46875 96.089844 292.082031 97.800781 C 292.695312 99.515625 293.265625 101.238281 293.792969 102.980469 C 294.320312 104.71875 294.804688 106.472656 295.246094 108.234375 C 295.6875 109.996094 296.085938 111.769531 296.441406 113.554688 C 296.796875 115.335938 297.105469 117.128906 297.375 118.925781 C 297.640625 120.722656 297.863281 122.527344 298.039062 124.335938 C 298.21875 126.144531 298.351562 127.957031 298.441406 129.773438 C 298.53125 131.589844 298.574219 133.40625 298.574219 135.222656 C 298.574219 137.042969 298.53125 138.859375 298.441406 140.675781 C 298.351562 142.492188 298.21875 144.304688 298.039062 146.113281 C 297.863281 147.921875 297.640625 149.726562 297.375 151.523438 C 297.105469 153.320312 296.796875 155.113281 296.441406 156.894531 C 296.085938 158.675781 295.6875 160.449219 295.246094 162.214844 C 294.804688 163.976562 294.320312 165.730469 293.792969 167.46875 C 293.265625 169.207031 292.695312 170.933594 292.082031 172.644531 C 291.46875 174.355469 290.816406 176.054688 290.121094 177.734375 C 289.425781 179.410156 288.6875 181.074219 287.910156 182.714844 C 287.132812 184.359375 286.316406 185.984375 285.460938 187.585938 C 284.601562 189.191406 283.707031 190.769531 282.773438 192.332031 C 281.835938 193.890625 280.867188 195.425781 279.855469 196.9375 C 278.84375 198.449219 277.800781 199.933594 276.714844 201.394531 C 275.632812 202.855469 274.515625 204.285156 273.363281 205.691406 C 272.207031 207.097656 271.019531 208.472656 269.800781 209.820312 C 268.578125 211.167969 267.328125 212.484375 266.042969 213.769531 C 264.753906 215.054688 263.441406 216.308594 262.09375 217.527344 C 260.746094 218.75 259.371094 219.9375 257.964844 221.089844 C 256.558594 222.242188 255.125 223.359375 253.667969 224.445312 C 252.207031 225.527344 250.71875 226.574219 249.207031 227.582031 C 247.695312 228.59375 246.160156 229.566406 244.601562 230.5 C 243.042969 231.433594 241.460938 232.332031 239.859375 233.1875 C 238.253906 234.042969 236.632812 234.863281 234.988281 235.640625 C 233.34375 236.417969 231.683594 237.152344 230.003906 237.847656 C 228.324219 238.542969 226.628906 239.199219 224.917969 239.808594 C 223.207031 240.421875 221.480469 240.992188 219.742188 241.519531 C 218 242.046875 216.25 242.53125 214.488281 242.976562 C 212.722656 243.417969 210.949219 243.816406 209.167969 244.167969 C 207.382812 244.523438 205.59375 244.835938 203.796875 245.101562 C 201.996094 245.367188 200.191406 245.589844 198.382812 245.769531 C 196.574219 245.945312 194.761719 246.082031 192.945312 246.167969 C 191.132812 246.257812 189.3125 246.304688 187.496094 246.304688 Z M 187.496094 246.304688 " fill-opacity="1" fill-rule="nonzero"/></g><path fill="#ffffff" d="M 264.113281 114.871094 L 188.011719 53.039062 C 187.863281 52.914062 187.691406 52.851562 187.496094 52.851562 C 187.300781 52.851562 187.128906 52.914062 186.980469 53.039062 L 110.878906 114.871094 C 110.742188 114.980469 110.652344 115.117188 110.605469 115.285156 C 110.558594 115.449219 110.566406 115.617188 110.625 115.777344 C 110.679688 115.941406 110.78125 116.074219 110.921875 116.171875 C 111.0625 116.273438 111.222656 116.320312 111.394531 116.320312 L 122.058594 116.320312 L 122.058594 194.03125 L 252.933594 194.03125 L 252.933594 116.320312 L 263.597656 116.320312 C 263.773438 116.320312 263.929688 116.273438 264.070312 116.171875 C 264.210938 116.074219 264.3125 115.941406 264.371094 115.777344 C 264.425781 115.617188 264.433594 115.449219 264.386719 115.285156 C 264.339844 115.117188 264.25 114.980469 264.113281 114.871094 Z M 151.390625 179.714844 C 151.390625 180.117188 151.351562 180.515625 151.269531 180.910156 C 151.191406 181.308594 151.074219 181.691406 150.921875 182.0625 C 150.769531 182.433594 150.578125 182.789062 150.355469 183.125 C 150.132812 183.457031 149.875 183.769531 149.59375 184.054688 C 149.308594 184.339844 148.996094 184.59375 148.660156 184.816406 C 148.328125 185.039062 147.972656 185.230469 147.601562 185.382812 C 147.230469 185.539062 146.84375 185.652344 146.449219 185.730469 C 146.054688 185.8125 145.65625 185.851562 145.253906 185.851562 C 144.851562 185.851562 144.453125 185.8125 144.054688 185.730469 C 143.660156 185.652344 143.277344 185.539062 142.90625 185.382812 C 142.535156 185.230469 142.179688 185.039062 141.84375 184.816406 C 141.507812 184.59375 141.199219 184.339844 140.914062 184.054688 C 140.628906 183.769531 140.375 183.457031 140.152344 183.125 C 139.929688 182.789062 139.738281 182.433594 139.585938 182.0625 C 139.429688 181.691406 139.3125 181.308594 139.234375 180.910156 C 139.15625 180.515625 139.117188 180.117188 139.117188 179.714844 L 139.117188 122.457031 C 139.117188 122.054688 139.15625 121.65625 139.234375 121.257812 C 139.3125 120.863281 139.429688 120.480469 139.585938 120.109375 C 139.738281 119.738281 139.929688 119.382812 140.152344 119.046875 C 140.375 118.714844 140.628906 118.402344 140.914062 118.117188 C 141.199219 117.832031 141.507812 117.578125 141.84375 117.355469 C 142.179688 117.132812 142.535156 116.941406 142.90625 116.789062 C 143.277344 116.632812 143.660156 116.519531 144.054688 116.4375 C 144.453125 116.359375 144.851562 116.320312 145.253906 116.320312 C 145.65625 116.320312 146.054688 116.359375 146.449219 116.4375 C 146.84375 116.519531 147.230469 116.632812 147.601562 116.789062 C 147.972656 116.941406 148.328125 117.132812 148.664062 117.355469 C 148.996094 117.578125 149.308594 117.832031 149.59375 118.117188 C 149.875 118.402344 150.132812 118.714844 150.355469 119.046875 C 150.578125 119.382812 150.769531 119.738281 150.921875 120.109375 C 151.074219 120.480469 151.191406 120.863281 151.269531 121.257812 C 151.351562 121.65625 151.390625 122.054688 151.390625 122.457031 Z M 180.019531 179.714844 C 180.019531 180.117188 179.980469 180.515625 179.902344 180.910156 C 179.824219 181.308594 179.707031 181.691406 179.554688 182.0625 C 179.398438 182.433594 179.210938 182.789062 178.988281 183.125 C 178.761719 183.457031 178.507812 183.769531 178.222656 184.054688 C 177.9375 184.339844 177.628906 184.59375 177.292969 184.816406 C 176.960938 185.039062 176.605469 185.230469 176.234375 185.382812 C 175.863281 185.539062 175.476562 185.652344 175.082031 185.730469 C 174.6875 185.8125 174.289062 185.851562 173.886719 185.851562 C 173.484375 185.851562 173.082031 185.8125 172.6875 185.730469 C 172.292969 185.652344 171.910156 185.539062 171.539062 185.382812 C 171.164062 185.230469 170.8125 185.039062 170.476562 184.816406 C 170.140625 184.59375 169.832031 184.339844 169.546875 184.054688 C 169.261719 183.769531 169.007812 183.457031 168.785156 183.125 C 168.558594 182.789062 168.371094 182.433594 168.21875 182.0625 C 168.0625 181.691406 167.945312 181.308594 167.867188 180.910156 C 167.789062 180.515625 167.75 180.117188 167.75 179.714844 L 167.75 122.457031 C 167.75 122.054688 167.789062 121.65625 167.867188 121.257812 C 167.945312 120.863281 168.0625 120.480469 168.21875 120.109375 C 168.371094 119.738281 168.558594 119.382812 168.785156 119.046875 C 169.007812 118.714844 169.261719 118.402344 169.546875 118.117188 C 169.832031 117.832031 170.140625 117.578125 170.476562 117.355469 C 170.8125 117.132812 171.164062 116.941406 171.539062 116.789062 C 171.910156 116.632812 172.292969 116.519531 172.6875 116.4375 C 173.082031 116.359375 173.484375 116.320312 173.886719 116.320312 C 174.289062 116.320312 174.6875 116.359375 175.082031 116.4375 C 175.476562 116.519531 175.863281 116.632812 176.234375 116.789062 C 176.605469 116.941406 176.960938 117.132812 177.292969 117.355469 C 177.628906 117.578125 177.9375 117.832031 178.222656 118.117188 C 178.507812 118.402344 178.761719 118.714844 178.988281 119.046875 C 179.210938 119.382812 179.398438 119.738281 179.554688 120.109375 C 179.707031 120.480469 179.824219 120.863281 179.902344 121.257812 C 179.980469 121.65625 180.019531 122.054688 180.019531 122.457031 Z M 208.648438 179.714844 C 208.648438 180.117188 208.609375 180.515625 208.527344 180.910156 C 208.449219 181.308594 208.335938 181.691406 208.179688 182.0625 C 208.027344 182.433594 207.835938 182.789062 207.613281 183.125 C 207.390625 183.457031 207.136719 183.769531 206.851562 184.054688 C 206.566406 184.339844 206.253906 184.59375 205.921875 184.816406 C 205.585938 185.039062 205.230469 185.230469 204.859375 185.382812 C 204.488281 185.539062 204.105469 185.652344 203.707031 185.730469 C 203.3125 185.8125 202.914062 185.851562 202.511719 185.851562 C 202.109375 185.851562 201.710938 185.8125 201.316406 185.730469 C 200.917969 185.652344 200.535156 185.539062 200.164062 185.382812 C 199.792969 185.230469 199.4375 185.039062 199.101562 184.816406 C 198.769531 184.59375 198.457031 184.339844 198.171875 184.054688 C 197.886719 183.769531 197.632812 183.457031 197.410156 183.125 C 197.1875 182.789062 196.996094 182.433594 196.84375 182.0625 C 196.6875 181.691406 196.574219 181.308594 196.492188 180.910156 C 196.414062 180.515625 196.375 180.117188 196.375 179.714844 L 196.375 122.457031 C 196.375 122.054688 196.414062 121.65625 196.492188 121.257812 C 196.574219 120.863281 196.6875 120.480469 196.84375 120.109375 C 196.996094 119.738281 197.1875 119.382812 197.410156 119.046875 C 197.632812 118.714844 197.886719 118.402344 198.171875 118.117188 C 198.457031 117.832031 198.769531 117.578125 199.101562 117.355469 C 199.4375 117.132812 199.792969 116.941406 200.164062 116.789062 C 200.535156 116.632812 200.917969 116.519531 201.316406 116.4375 C 201.710938 116.359375 202.109375 116.320312 202.511719 116.320312 C 202.914062 116.320312 203.3125 116.359375 203.707031 116.4375 C 204.105469 116.519531 204.488281 116.632812 204.859375 116.789062 C 205.230469 116.941406 205.585938 117.132812 205.921875 117.355469 C 206.253906 117.578125 206.566406 117.832031 206.851562 118.117188 C 207.136719 118.402344 207.390625 118.714844 207.613281 119.046875 C 207.835938 119.382812 208.027344 119.738281 208.179688 120.109375 C 208.335938 120.480469 208.449219 120.863281 208.527344 121.257812 C 208.609375 121.65625 208.648438 122.054688 208.648438 122.457031 Z M 237.28125 179.714844 C 237.277344 180.117188 237.238281 180.515625 237.160156 180.910156 C 237.082031 181.304688 236.964844 181.6875 236.808594 182.058594 C 236.65625 182.429688 236.464844 182.785156 236.242188 183.117188 C 236.015625 183.453125 235.761719 183.761719 235.476562 184.046875 C 235.191406 184.328125 234.882812 184.582031 234.550781 184.808594 C 234.214844 185.03125 233.859375 185.21875 233.488281 185.371094 C 233.117188 185.527344 232.734375 185.640625 232.339844 185.722656 C 231.945312 185.800781 231.546875 185.839844 231.144531 185.839844 C 230.742188 185.839844 230.34375 185.800781 229.949219 185.722656 C 229.554688 185.640625 229.171875 185.527344 228.796875 185.371094 C 228.425781 185.21875 228.074219 185.03125 227.738281 184.808594 C 227.402344 184.582031 227.09375 184.328125 226.808594 184.046875 C 226.523438 183.761719 226.269531 183.453125 226.046875 183.117188 C 225.824219 182.785156 225.632812 182.429688 225.480469 182.058594 C 225.324219 181.6875 225.207031 181.304688 225.128906 180.910156 C 225.050781 180.515625 225.007812 180.117188 225.007812 179.714844 L 225.007812 122.457031 C 225.007812 122.054688 225.050781 121.65625 225.128906 121.261719 C 225.207031 120.867188 225.324219 120.484375 225.480469 120.113281 C 225.632812 119.742188 225.824219 119.386719 226.046875 119.054688 C 226.269531 118.71875 226.523438 118.410156 226.808594 118.125 C 227.09375 117.839844 227.402344 117.589844 227.738281 117.363281 C 228.074219 117.140625 228.425781 116.953125 228.796875 116.800781 C 229.171875 116.644531 229.554688 116.527344 229.949219 116.449219 C 230.34375 116.371094 230.742188 116.332031 231.144531 116.332031 C 231.546875 116.332031 231.945312 116.371094 232.339844 116.449219 C 232.734375 116.527344 233.117188 116.644531 233.488281 116.800781 C 233.859375 116.953125 234.214844 117.140625 234.550781 117.363281 C 234.882812 117.589844 235.191406 117.839844 235.476562 118.125 C 235.761719 118.410156 236.015625 118.71875 236.242188 119.054688 C 236.464844 119.386719 236.65625 119.742188 236.808594 120.113281 C 236.964844 120.484375 237.082031 120.867188 237.160156 121.261719 C 237.238281 121.65625 237.277344 122.054688 237.28125 122.457031 Z M 237.28125 179.714844 " fill-opacity="1" fill-rule="nonzero"/><path fill="#ffffff" d="M 265.90625 116.328125 L 187.496094 52.613281 L 109.085938 116.328125 Z M 265.90625 116.328125 " fill-opacity="1" fill-rule="nonzero"/><path fill="#ffffff" d="M 115.621094 194.03125 L 259.371094 194.03125 L 259.371094 207.097656 L 115.621094 207.097656 Z M 115.621094 194.03125 " fill-opacity="1" fill-rule="nonzero"/></svg>